<svg width="323" height="31" viewBox="0 0 323 31" fill="none" xmlns="http://www.w3.org/2000/svg">
<path d="M21.3983 0.319998V30H18.6783V25.84C17.8249 27.2533 16.6916 28.3333 15.2783 29.08C13.8916 29.8267 12.3183 30.2 10.5583 30.2C8.58495 30.2 6.79828 29.7467 5.19828 28.84C3.59828 27.9333 2.34495 26.6667 1.43828 25.04C0.531615 23.4133 0.0782814 21.56 0.0782814 19.48C0.0782814 17.4 0.531615 15.5467 1.43828 13.92C2.34495 12.2933 3.59828 11.04 5.19828 10.16C6.79828 9.25333 8.58495 8.8 10.5583 8.8C12.2649 8.8 13.7983 9.16 15.1583 9.88C16.5449 10.5733 17.6783 11.6 18.5583 12.96V0.319998H21.3983ZM10.7983 27.68C12.2649 27.68 13.5849 27.3467 14.7583 26.68C15.9583 25.9867 16.8916 25.0133 17.5583 23.76C18.2516 22.5067 18.5983 21.08 18.5983 19.48C18.5983 17.88 18.2516 16.4533 17.5583 15.2C16.8916 13.9467 15.9583 12.9867 14.7583 12.32C13.5849 11.6267 12.2649 11.28 10.7983 11.28C9.30495 11.28 7.95828 11.6267 6.75828 12.32C5.58495 12.9867 4.65162 13.9467 3.95828 15.2C3.29161 16.4533 2.95828 17.88 2.95828 19.48C2.95828 21.08 3.29161 22.5067 3.95828 23.76C4.65162 25.0133 5.58495 25.9867 6.75828 26.68C7.95828 27.3467 9.30495 27.68 10.7983 27.68ZM29.3077 8.96H32.1477V30H29.3077V8.96ZM30.7477 4.36C30.161 4.36 29.6677 4.16 29.2677 3.76C28.8677 3.36 28.6677 2.88 28.6677 2.32C28.6677 1.78667 28.8677 1.32 29.2677 0.919998C29.6677 0.519998 30.161 0.319998 30.7477 0.319998C31.3343 0.319998 31.8277 0.519998 32.2277 0.919998C32.6277 1.29333 32.8277 1.74666 32.8277 2.28C32.8277 2.86667 32.6277 3.36 32.2277 3.76C31.8277 4.16 31.3343 4.36 30.7477 4.36ZM47.4098 8.8C50.1565 8.8 52.2632 9.49333 53.7298 10.88C55.1965 12.24 55.9298 14.2667 55.9298 16.96V30H53.2098V26.72C52.5698 27.8133 51.6232 28.6667 50.3698 29.28C49.1432 29.8933 47.6765 30.2 45.9698 30.2C43.6232 30.2 41.7565 29.64 40.3698 28.52C38.9832 27.4 38.2898 25.92 38.2898 24.08C38.2898 22.2933 38.9298 20.8533 40.2098 19.76C41.5165 18.6667 43.5832 18.12 46.4098 18.12H53.0898V16.84C53.0898 15.0267 52.5832 13.6533 51.5698 12.72C50.5565 11.76 49.0765 11.28 47.1298 11.28C45.7965 11.28 44.5165 11.5067 43.2898 11.96C42.0632 12.3867 41.0098 12.9867 40.1298 13.76L38.8498 11.64C39.9165 10.7333 41.1965 10.04 42.6898 9.56C44.1832 9.05333 45.7565 8.8 47.4098 8.8ZM46.4098 27.96C48.0098 27.96 49.3832 27.6 50.5298 26.88C51.6765 26.1333 52.5298 25.0667 53.0898 23.68V20.24H46.4898C42.8898 20.24 41.0898 21.4933 41.0898 24C41.0898 25.2267 41.5565 26.2 42.4898 26.92C43.4232 27.6133 44.7298 27.96 46.4098 27.96ZM50.3698 0.719998H54.1698L47.6898 5.68H44.8898L50.3698 0.719998ZM66.3636 13.08C67.0303 11.6667 68.0169 10.6 69.3236 9.88C70.6569 9.16 72.2969 8.8 74.2436 8.8V11.56L73.5636 11.52C71.3503 11.52 69.6169 12.2 68.3636 13.56C67.1103 14.92 66.4836 16.8267 66.4836 19.28V30H63.6436V8.96H66.3636V13.08ZM79.3858 8.96H82.2258V30H79.3858V8.96ZM80.8258 4.36C80.2391 4.36 79.7458 4.16 79.3458 3.76C78.9458 3.36 78.7458 2.88 78.7458 2.32C78.7458 1.78667 78.9458 1.32 79.3458 0.919998C79.7458 0.519998 80.2391 0.319998 80.8258 0.319998C81.4124 0.319998 81.9058 0.519998 82.3058 0.919998C82.7058 1.29333 82.9058 1.74666 82.9058 2.28C82.9058 2.86667 82.7058 3.36 82.3058 3.76C81.9058 4.16 81.4124 4.36 80.8258 4.36ZM98.728 30.2C96.7013 30.2 94.8746 29.7467 93.248 28.84C91.6213 27.9067 90.3413 26.6267 89.408 25C88.4746 23.3733 88.008 21.5333 88.008 19.48C88.008 17.4267 88.4746 15.5867 89.408 13.96C90.3413 12.3333 91.6213 11.0667 93.248 10.16C94.8746 9.25333 96.7013 8.8 98.728 8.8C100.755 8.8 102.581 9.25333 104.208 10.16C105.835 11.0667 107.101 12.3333 108.008 13.96C108.941 15.5867 109.408 17.4267 109.408 19.48C109.408 21.5333 108.941 23.3733 108.008 25C107.101 26.6267 105.835 27.9067 104.208 28.84C102.581 29.7467 100.755 30.2 98.728 30.2ZM98.728 27.68C100.221 27.68 101.555 27.3467 102.728 26.68C103.928 25.9867 104.861 25.0133 105.528 23.76C106.195 22.5067 106.528 21.08 106.528 19.48C106.528 17.88 106.195 16.4533 105.528 15.2C104.861 13.9467 103.928 12.9867 102.728 12.32C101.555 11.6267 100.221 11.28 98.728 11.28C97.2346 11.28 95.888 11.6267 94.688 12.32C93.5146 12.9867 92.5813 13.9467 91.888 15.2C91.2213 16.4533 90.888 17.88 90.888 19.48C90.888 21.08 91.2213 22.5067 91.888 23.76C92.5813 25.0133 93.5146 25.9867 94.688 26.68C95.888 27.3467 97.2346 27.68 98.728 27.68Z" fill="#F6EDE2"/>
<path d="M132.635 2.52C131.408 2.52 130.475 2.85333 129.835 3.52C129.222 4.18667 128.915 5.17333 128.915 6.48V8.96H135.395V11.36H128.995V30H126.155V11.36H122.395V8.96H126.155V6.36C126.155 4.44 126.702 2.92 127.795 1.8C128.915 0.679998 130.488 0.119998 132.515 0.119998C133.315 0.119998 134.088 0.239998 134.835 0.479999C135.582 0.693332 136.208 1.01333 136.715 1.44L135.755 3.56C134.928 2.86667 133.888 2.52 132.635 2.52ZM142.435 8.96H145.275V30H142.435V8.96ZM143.875 4.36C143.288 4.36 142.795 4.16 142.395 3.76C141.995 3.36 141.795 2.88 141.795 2.32C141.795 1.78667 141.995 1.32 142.395 0.919998C142.795 0.519998 143.288 0.319998 143.875 0.319998C144.462 0.319998 144.955 0.519998 145.355 0.919998C145.755 1.29333 145.955 1.74666 145.955 2.28C145.955 2.86667 145.755 3.36 145.355 3.76C144.955 4.16 144.462 4.36 143.875 4.36ZM163.934 8.8C166.574 8.8 168.667 9.57333 170.214 11.12C171.787 12.64 172.574 14.8667 172.574 17.8V30H169.734V18.08C169.734 15.8933 169.187 14.2267 168.094 13.08C167.001 11.9333 165.441 11.36 163.414 11.36C161.147 11.36 159.347 12.04 158.014 13.4C156.707 14.7333 156.054 16.5867 156.054 18.96V30H153.214V8.96H155.934V12.84C156.707 11.56 157.774 10.5733 159.134 9.88C160.521 9.16 162.121 8.8 163.934 8.8ZM187.644 8.8C190.391 8.8 192.498 9.49333 193.964 10.88C195.431 12.24 196.164 14.2667 196.164 16.96V30H193.444V26.72C192.804 27.8133 191.858 28.6667 190.604 29.28C189.378 29.8933 187.911 30.2 186.204 30.2C183.858 30.2 181.991 29.64 180.604 28.52C179.218 27.4 178.524 25.92 178.524 24.08C178.524 22.2933 179.164 20.8533 180.444 19.76C181.751 18.6667 183.818 18.12 186.644 18.12H193.324V16.84C193.324 15.0267 192.818 13.6533 191.804 12.72C190.791 11.76 189.311 11.28 187.364 11.28C186.031 11.28 184.751 11.5067 183.524 11.96C182.298 12.3867 181.244 12.9867 180.364 13.76L179.084 11.64C180.151 10.7333 181.431 10.04 182.924 9.56C184.418 9.05333 185.991 8.8 187.644 8.8ZM186.644 27.96C188.244 27.96 189.618 27.6 190.764 26.88C191.911 26.1333 192.764 25.0667 193.324 23.68V20.24H186.724C183.124 20.24 181.324 21.4933 181.324 24C181.324 25.2267 181.791 26.2 182.724 26.92C183.658 27.6133 184.964 27.96 186.644 27.96ZM214.598 8.8C217.238 8.8 219.331 9.57333 220.878 11.12C222.451 12.64 223.238 14.8667 223.238 17.8V30H220.398V18.08C220.398 15.8933 219.851 14.2267 218.758 13.08C217.665 11.9333 216.105 11.36 214.078 11.36C211.811 11.36 210.011 12.04 208.678 13.4C207.371 14.7333 206.718 16.5867 206.718 18.96V30H203.878V8.96H206.598V12.84C207.371 11.56 208.438 10.5733 209.798 9.88C211.185 9.16 212.785 8.8 214.598 8.8ZM239.746 30.2C237.666 30.2 235.8 29.7467 234.146 28.84C232.52 27.9333 231.24 26.6667 230.306 25.04C229.373 23.3867 228.906 21.5333 228.906 19.48C228.906 17.4267 229.373 15.5867 230.306 13.96C231.24 12.3333 232.52 11.0667 234.146 10.16C235.8 9.25333 237.666 8.8 239.746 8.8C241.56 8.8 243.173 9.16 244.586 9.88C246.026 10.5733 247.16 11.6 247.986 12.96L245.866 14.4C245.173 13.36 244.293 12.5867 243.226 12.08C242.16 11.5467 241 11.28 239.746 11.28C238.226 11.28 236.853 11.6267 235.626 12.32C234.426 12.9867 233.48 13.9467 232.786 15.2C232.12 16.4533 231.786 17.88 231.786 19.48C231.786 21.1067 232.12 22.5467 232.786 23.8C233.48 25.0267 234.426 25.9867 235.626 26.68C236.853 27.3467 238.226 27.68 239.746 27.68C241 27.68 242.16 27.4267 243.226 26.92C244.293 26.4133 245.173 25.64 245.866 24.6L247.986 26.04C247.16 27.4 246.026 28.44 244.586 29.16C243.146 29.8533 241.533 30.2 239.746 30.2ZM271.534 20.36H253.934C254.094 22.5467 254.934 24.32 256.454 25.68C257.974 27.0133 259.894 27.68 262.214 27.68C263.521 27.68 264.721 27.4533 265.814 27C266.907 26.52 267.854 25.8267 268.654 24.92L270.254 26.76C269.321 27.88 268.147 28.7333 266.734 29.32C265.347 29.9067 263.814 30.2 262.134 30.2C259.974 30.2 258.054 29.7467 256.374 28.84C254.721 27.9067 253.427 26.6267 252.494 25C251.561 23.3733 251.094 21.5333 251.094 19.48C251.094 17.4267 251.534 15.5867 252.414 13.96C253.321 12.3333 254.547 11.0667 256.094 10.16C257.667 9.25333 259.427 8.8 261.374 8.8C263.321 8.8 265.067 9.25333 266.614 10.16C268.161 11.0667 269.374 12.3333 270.254 13.96C271.134 15.56 271.574 17.4 271.574 19.48L271.534 20.36ZM261.374 11.24C259.347 11.24 257.641 11.8933 256.254 13.2C254.894 14.48 254.121 16.16 253.934 18.24H268.854C268.667 16.16 267.881 14.48 266.494 13.2C265.134 11.8933 263.427 11.24 261.374 11.24ZM277.355 8.96H280.195V30H277.355V8.96ZM278.795 4.36C278.208 4.36 277.715 4.16 277.315 3.76C276.915 3.36 276.715 2.88 276.715 2.32C276.715 1.78667 276.915 1.32 277.315 0.919998C277.715 0.519998 278.208 0.319998 278.795 0.319998C279.381 0.319998 279.875 0.519998 280.275 0.919998C280.675 1.29333 280.875 1.74666 280.875 2.28C280.875 2.86667 280.675 3.36 280.275 3.76C279.875 4.16 279.381 4.36 278.795 4.36ZM290.817 13.08C291.483 11.6667 292.47 10.6 293.777 9.88C295.11 9.16 296.75 8.8 298.697 8.8V11.56L298.017 11.52C295.803 11.52 294.07 12.2 292.817 13.56C291.563 14.92 290.937 16.8267 290.937 19.28V30H288.097V8.96H290.817V13.08ZM312.244 30.2C310.217 30.2 308.39 29.7467 306.764 28.84C305.137 27.9067 303.857 26.6267 302.924 25C301.99 23.3733 301.524 21.5333 301.524 19.48C301.524 17.4267 301.99 15.5867 302.924 13.96C303.857 12.3333 305.137 11.0667 306.764 10.16C308.39 9.25333 310.217 8.8 312.244 8.8C314.27 8.8 316.097 9.25333 317.724 10.16C319.35 11.0667 320.617 12.3333 321.524 13.96C322.457 15.5867 322.924 17.4267 322.924 19.48C322.924 21.5333 322.457 23.3733 321.524 25C320.617 26.6267 319.35 27.9067 317.724 28.84C316.097 29.7467 314.27 30.2 312.244 30.2ZM312.244 27.68C313.737 27.68 315.07 27.3467 316.244 26.68C317.444 25.9867 318.377 25.0133 319.044 23.76C319.71 22.5067 320.044 21.08 320.044 19.48C320.044 17.88 319.71 16.4533 319.044 15.2C318.377 13.9467 317.444 12.9867 316.244 12.32C315.07 11.6267 313.737 11.28 312.244 11.28C310.75 11.28 309.404 11.6267 308.204 12.32C307.03 12.9867 306.097 13.9467 305.404 15.2C304.737 16.4533 304.404 17.88 304.404 19.48C304.404 21.08 304.737 22.5067 305.404 23.76C306.097 25.0133 307.03 25.9867 308.204 26.68C309.404 27.3467 310.75 27.68 312.244 27.68Z" fill="#E5ABB2"/>
</svg>
